<?xml version="1.0" encoding="UTF-8"?>
<svg version="1.1" xmlns="http://www.w3.org/2000/svg" width="79" height="79">
<path d="M0 0 C1.30453125 -0.02578125 2.6090625 -0.0515625 3.953125 -0.078125 C9.23319897 0.37817769 12.47175459 1.86811307 16.0625 5.75 C19.46065183 10.78429901 18.96819493 15.70639168 19 21.5625 C19.020625 22.50029297 19.04125 23.43808594 19.0625 24.40429688 C19.09984718 31.02875334 18.35501858 35.57055232 13.5625 40.5 C6.97974857 44.59593422 0.1850535 44.98110961 -7.25 43.25 C-12.36080388 40.5552125 -15.41988254 37.74035239 -17.25 32.25 C-17.50455755 28.81694432 -17.48130883 25.37901094 -17.5 21.9375 C-17.520625 20.99970703 -17.54125 20.06191406 -17.5625 19.09570312 C-17.59282115 13.71748841 -17.31991683 9.87310515 -14.25 5.25 C-9.32024705 0.80119855 -6.61013013 0.07776624 0 0 Z M-7.25 10.25 C-9.00752146 13.76504291 -8.51953401 17.75233252 -8.5625 21.625 C-8.59150391 22.48867188 -8.62050781 23.35234375 -8.65039062 24.2421875 C-8.73935644 29.35316936 -8.73935644 29.35316936 -6.4453125 33.796875 C-3.3608968 35.83851671 -0.9237132 36.12109778 2.75 36.25 C6.63192461 35.2148201 7.47249908 34.66625138 9.75 31.25 C10.05562845 29.28813575 10.05562845 29.28813575 10.015625 27.16015625 C10.01820312 26.37576172 10.02078125 25.59136719 10.0234375 24.78320312 C10.01570313 23.96787109 10.00796875 23.15253906 10 22.3125 C10.00773437 21.50103516 10.01546875 20.68957031 10.0234375 19.85351562 C10.01957031 18.67499023 10.01957031 18.67499023 10.015625 17.47265625 C10.01336914 16.75859619 10.01111328 16.04453613 10.00878906 15.30883789 C9.70558489 12.89664846 9.0342396 11.30849536 7.75 9.25 C2.06064106 6.25560056 -1.82871655 7.1177029 -7.25 10.25 Z " fill="#C61111" transform="translate(60.25,16.75)"/>
<path d="M0 0 C2.43858862 1.32306404 4.2400514 2.88878084 5.9609375 5.05859375 C6.75564552 8.14912493 6.64547417 11.07314035 6.5234375 14.24609375 C3.8834375 14.24609375 1.2434375 14.24609375 -1.4765625 14.24609375 C-1.8271875 13.27671875 -2.1778125 12.30734375 -2.5390625 11.30859375 C-4.21112018 7.92189533 -4.21112018 7.92189533 -7.8515625 7.24609375 C-11.48565788 7.24609375 -13.44785816 7.25580232 -16.4765625 9.24609375 C-19.5514239 14.95655063 -19.18858138 22.2207197 -18.08203125 28.4765625 C-17.48817249 30.65497478 -17.48817249 30.65497478 -15.4765625 33.24609375 C-11.93135199 34.62353223 -8.74586609 34.58012101 -5.1015625 33.62109375 C-2.93467375 31.7875725 -2.32010186 29.91730174 -1.4765625 27.24609375 C1.1634375 27.24609375 3.8034375 27.24609375 6.5234375 27.24609375 C7.05655839 31.59991436 6.82309614 34.50994606 4.2734375 38.05859375 C-0.04772097 42.59427782 -5.44728155 43.07559994 -11.4765625 43.24609375 C-16.43491253 42.93340501 -19.52396025 42.0162828 -23.4140625 38.87109375 C-28.06160318 32.95604198 -27.81174387 28.13467729 -27.7890625 20.80859375 C-27.80517578 19.77154297 -27.82128906 18.73449219 -27.83789062 17.66601562 C-27.84398134 8.18276673 -27.84398134 8.18276673 -24.4765625 4.24609375 C-17.64674904 -1.75081563 -8.73722985 -2.65975609 0 0 Z " fill="#C61111" transform="translate(27.4765625,17.75390625)"/>
</svg>
